<mxfile host="app.diagrams.net" agent="Mozilla/5.0 (X11; Linux x86_64) AppleWebKit/537.36 (KHTML, like Gecko) Chrome/131.0.0.0 Safari/537.36" version="24.7.8">
  <diagram name="Страница — 1" id="P49vF3Evf8nyjgO3B2Z8">
    <mxGraphModel dx="650" dy="419" grid="1" gridSize="10" guides="1" tooltips="1" connect="1" arrows="1" fold="1" page="1" pageScale="1" pageWidth="827" pageHeight="1169" math="0" shadow="0">
      <root>
        <mxCell id="0" />
        <mxCell id="1" parent="0" />
        <mxCell id="G35J9VYWnQY23ctF6H68-1" value="" style="rounded=0;whiteSpace=wrap;html=1;fillColor=#d5e8d4;strokeColor=#82b366;" vertex="1" parent="1">
          <mxGeometry x="570" y="380" width="80" height="20" as="geometry" />
        </mxCell>
        <mxCell id="G35J9VYWnQY23ctF6H68-2" value="" style="rounded=0;whiteSpace=wrap;html=1;fillColor=#ffe6cc;strokeColor=#d79b00;" vertex="1" parent="1">
          <mxGeometry x="460" y="380" width="110" height="20" as="geometry" />
        </mxCell>
        <mxCell id="G35J9VYWnQY23ctF6H68-3" value="" style="rounded=0;whiteSpace=wrap;html=1;fillColor=#ffe6cc;strokeColor=#d79b00;" vertex="1" parent="1">
          <mxGeometry x="505" y="350" width="20" height="30" as="geometry" />
        </mxCell>
        <mxCell id="G35J9VYWnQY23ctF6H68-4" value="" style="rounded=0;whiteSpace=wrap;html=1;fillColor=#fff2cc;strokeColor=#d6b656;" vertex="1" parent="1">
          <mxGeometry x="390" y="350" width="115" height="20" as="geometry" />
        </mxCell>
        <mxCell id="G35J9VYWnQY23ctF6H68-5" style="edgeStyle=orthogonalEdgeStyle;rounded=0;orthogonalLoop=1;jettySize=auto;html=1;exitX=0.5;exitY=1;exitDx=0;exitDy=0;" edge="1" parent="1" source="G35J9VYWnQY23ctF6H68-3" target="G35J9VYWnQY23ctF6H68-3">
          <mxGeometry relative="1" as="geometry" />
        </mxCell>
        <mxCell id="G35J9VYWnQY23ctF6H68-6" value="" style="rounded=0;whiteSpace=wrap;html=1;fillColor=#fff2cc;strokeColor=#d6b656;" vertex="1" parent="1">
          <mxGeometry x="430" y="330" width="40" height="20" as="geometry" />
        </mxCell>
        <mxCell id="G35J9VYWnQY23ctF6H68-7" value="" style="rounded=0;whiteSpace=wrap;html=1;fillColor=#f8cecc;strokeColor=#b85450;" vertex="1" parent="1">
          <mxGeometry x="360" y="330" width="70" height="10" as="geometry" />
        </mxCell>
        <mxCell id="G35J9VYWnQY23ctF6H68-9" value="" style="rounded=0;whiteSpace=wrap;html=1;fillColor=#dae8fc;strokeColor=#6c8ebf;" vertex="1" parent="1">
          <mxGeometry x="402.5" y="300" width="107.5" height="20" as="geometry" />
        </mxCell>
        <mxCell id="G35J9VYWnQY23ctF6H68-10" value="o_p" style="text;html=1;align=center;verticalAlign=middle;whiteSpace=wrap;rounded=0;" vertex="1" parent="1">
          <mxGeometry x="402.5" y="295" width="100" height="30" as="geometry" />
        </mxCell>
        <mxCell id="G35J9VYWnQY23ctF6H68-11" value="i_p" style="text;html=1;align=center;verticalAlign=middle;whiteSpace=wrap;rounded=0;" vertex="1" parent="1">
          <mxGeometry x="560" y="375" width="100" height="30" as="geometry" />
        </mxCell>
        <mxCell id="G35J9VYWnQY23ctF6H68-12" value="a" style="text;html=1;align=center;verticalAlign=middle;whiteSpace=wrap;rounded=0;" vertex="1" parent="1">
          <mxGeometry x="485" y="375" width="60" height="30" as="geometry" />
        </mxCell>
        <mxCell id="G35J9VYWnQY23ctF6H68-13" value="c" style="text;html=1;align=center;verticalAlign=middle;whiteSpace=wrap;rounded=0;" vertex="1" parent="1">
          <mxGeometry x="417.5" y="345" width="60" height="30" as="geometry" />
        </mxCell>
        <mxCell id="G35J9VYWnQY23ctF6H68-14" value="b" style="text;html=1;align=center;verticalAlign=middle;whiteSpace=wrap;rounded=0;" vertex="1" parent="1">
          <mxGeometry x="485" y="350" width="60" height="30" as="geometry" />
        </mxCell>
        <mxCell id="G35J9VYWnQY23ctF6H68-15" value="e" style="text;html=1;align=center;verticalAlign=middle;whiteSpace=wrap;rounded=0;" vertex="1" parent="1">
          <mxGeometry x="360" y="320" width="70" height="30" as="geometry" />
        </mxCell>
        <mxCell id="G35J9VYWnQY23ctF6H68-16" value="d" style="text;html=1;align=center;verticalAlign=middle;whiteSpace=wrap;rounded=0;" vertex="1" parent="1">
          <mxGeometry x="417.5" y="325" width="60" height="30" as="geometry" />
        </mxCell>
        <mxCell id="G35J9VYWnQY23ctF6H68-18" value="" style="rounded=0;whiteSpace=wrap;html=1;fillColor=#f8cecc;strokeColor=#b85450;" vertex="1" parent="1">
          <mxGeometry x="387.5" y="300" width="15" height="30" as="geometry" />
        </mxCell>
        <mxCell id="G35J9VYWnQY23ctF6H68-19" value="g" style="text;html=1;align=center;verticalAlign=middle;whiteSpace=wrap;rounded=0;" vertex="1" parent="1">
          <mxGeometry x="365" y="300" width="60" height="30" as="geometry" />
        </mxCell>
      </root>
    </mxGraphModel>
  </diagram>
</mxfile>
